<?xml version="1.0" encoding="UTF-8"?>
<svg width="13px" height="20px" viewBox="0 0 13 20" version="1.1" xmlns="http://www.w3.org/2000/svg" xmlns:xlink="http://www.w3.org/1999/xlink">
    <!-- Generator: Sketch 49 (51002) - http://www.bohemiancoding.com/sketch -->
    <title>Shape</title>
    <desc>Created with Sketch.</desc>
    <defs></defs>
    <g id="Symbols" stroke="none" stroke-width="1" fill="none" fill-rule="evenodd">
        <g id="Icons/back3" transform="translate(-5.000000, -2.000000)" fill="#694E9F" fill-rule="nonzero">
            <path d="M13.0454394,2.49257014 C14.5683389,1.53031134 16.5607068,2.02103514 17.4955281,3.58862508 C18.4303495,5.15622212 17.9536179,7.20706671 16.4307255,8.16932543 C16.4125502,8.18080962 16.3942651,8.19210863 16.3758728,8.20322061 C14.801653,9.2273557 13.4048005,10.5151218 12.2430361,12.0132939 C13.4422374,13.4768201 14.8433608,14.7515129 16.4017473,15.7967138 C17.9428346,16.7277815 18.4588685,18.7685281 17.5543488,20.354838 C16.6498291,21.9411568 14.6672713,22.4723365 13.1261927,21.5412688 C13.1078004,21.5301568 13.0895152,21.5188579 13.0713399,21.5073737 C10.0094567,19.5220184 7.41101274,16.865498 5.46141403,13.7273731 C4.8461947,12.6723849 4.84619556,11.3541916 5.46141529,10.2992036 C7.40057541,7.15427653 9.99018427,4.48866171 13.0454394,2.49257014 Z" id="Shape"></path>
        </g>
    </g>
</svg>