<?xml version="1.0" encoding="UTF-8"?>
<svg width="24px" height="23px" viewBox="0 0 24 23" version="1.1" xmlns="http://www.w3.org/2000/svg" xmlns:xlink="http://www.w3.org/1999/xlink">
    <!-- Generator: Sketch 49 (51002) - http://www.bohemiancoding.com/sketch -->
    <title>Colored / Facebook</title>
    <desc>Created with Sketch.</desc>
    <defs></defs>
    <g id="ла" stroke="none" stroke-width="1" fill="none" fill-rule="evenodd">
        <g id="9.-Screen-Reply" transform="translate(-356.000000, -869.000000)" fill="#43619C">
            <g id="Social" transform="translate(135.000000, 845.000000)">
                <g transform="translate(125.000000, 24.000000)" id="Colored-/-Facebook">
                    <g transform="translate(96.000000, 0.000000)">
                        <path d="M23.46,22.0566316 C23.46,22.7633684 22.8871579,23.3368421 22.1804211,23.3368421 L16.272,23.3368421 L16.272,14.3576842 L19.2858947,14.3576842 L19.7374737,10.8581053 L16.272,10.8581053 L16.272,8.62421053 C16.272,7.61115789 16.5536842,6.92084211 18.0063158,6.92084211 L19.8593684,6.92021053 L19.8593684,3.79010526 C19.5385263,3.74778947 18.4389474,3.65242105 17.1593684,3.65242105 C14.4877895,3.65242105 12.6587368,5.28315789 12.6587368,8.27810526 L12.6587368,10.8581053 L9.63726316,10.8581053 L9.63726316,14.3576842 L12.6587368,14.3576842 L12.6587368,23.3368421 L1.55368421,23.3368421 C0.846947368,23.3368421 0.274105263,22.7633684 0.274105263,22.0566316 L0.274105263,1.43052632 C0.274105263,0.723157895 0.846947368,0.150315789 1.55368421,0.150315789 L22.1804211,0.150315789 C22.8871579,0.150315789 23.46,0.723157895 23.46,1.43052632 L23.46,22.0566316" id="Fill-70"></path>
                    </g>
                </g>
            </g>
        </g>
    </g>
</svg>