<?xml version="1.0" encoding="UTF-8"?>
<svg width="20px" height="20px" viewBox="0 0 20 20" version="1.1" xmlns="http://www.w3.org/2000/svg" xmlns:xlink="http://www.w3.org/1999/xlink">
    <!-- Generator: Sketch 49 (51002) - http://www.bohemiancoding.com/sketch -->
    <title>Shape</title>
    <desc>Created with Sketch.</desc>
    <defs></defs>
    <g id="Symbols" stroke="none" stroke-width="1" fill="none" fill-rule="evenodd">
        <g id="Icons/Menu/faq" transform="translate(-2.000000, -2.000000)" fill="#694E9F" fill-rule="nonzero">
            <path d="M11.9999988,2.00000387 C6.4799995,2.00000387 2.00000005,6.00162204 2.00000005,11.0036448 L2,11.0036411 C2.0302334,13.435938 3.09461987,15.7402098 4.92666631,17.3395365 L4.66666901,21.4478645 C4.65272621,21.7385173 4.87694899,21.9854458 5.16748428,21.9993941 C5.27796027,22.004698 5.38730092,21.9750728 5.48000225,21.9147199 L8.98000182,19.5804426 L8.98000159,19.5804425 C9.96200813,19.8621565 10.9784213,20.0058132 12.0000012,20.0072818 C17.5200005,20.0072818 22,16.0056636 22,11.0036409 C22,6.00161818 17.5200005,2 12.0000012,2 L11.9999988,2.00000387 Z M11.5599989,16.9260397 C10.7536723,16.9223478 10.1030057,16.2654332 10.106699,15.4587797 C10.1103894,14.6521268 10.7670383,14.0011969 11.5733655,14.0048917 C12.3744787,14.0085597 13.0229987,14.6573449 13.0266653,15.4587797 L13.0266654,15.4587931 C13.0303483,16.265446 12.3796768,16.9223583 11.5733522,16.9260398 C11.5688976,16.9260601 11.564443,16.9260601 11.5599884,16.9260397 L11.5599989,16.9260397 Z M13.7333319,11.0836771 C13.1466654,11.5505326 12.8399987,11.8173071 12.8399987,12.2774932 C12.8399987,12.9699732 12.2788621,13.5313336 11.5866655,13.5313336 C10.8944656,13.5313336 10.3333324,12.9699699 10.3333324,12.2774932 C10.3333324,10.6701766 11.3333322,9.85651422 12.0666655,9.26294086 C12.5266654,8.8894565 12.7999987,8.64935941 12.7999987,8.42260104 C12.7999987,8.19584268 12.7999987,7.63561613 11.5599989,7.63561613 L11.559999,7.63561614 C11.0934637,7.63035465 10.6337125,7.7476381 10.2266659,7.97575368 C10.0267365,8.10266768 9.79662988,8.17402921 9.55999925,8.18250397 C8.89725727,8.18250394 8.35999934,7.64502796 8.35999934,6.98201851 C8.35999934,6.98201851 8.35999934,6.98201851 8.35999934,6.98201851 L8.35999929,6.98202172 C8.36669642,6.52832359 8.62309659,6.11535126 9.02666321,5.90825418 L9.02666361,5.90825393 C9.82395018,5.40565869 10.7511701,5.14825326 11.69333,5.16795456 C13.886663,5.16795456 15.3599962,6.44847238 15.3599962,8.35591038 L15.3599963,8.35590733 C15.3154745,9.48410355 14.7033237,10.5131397 13.7333365,11.0903464 L13.7333319,11.0836771 Z" id="Shape"></path>
        </g>
    </g>
</svg>