<?xml version="1.0" encoding="UTF-8"?>
<svg width="16px" height="16px" viewBox="0 0 16 16" version="1.1" xmlns="http://www.w3.org/2000/svg" xmlns:xlink="http://www.w3.org/1999/xlink">
    <!-- Generator: Sketch 49 (51002) - http://www.bohemiancoding.com/sketch -->
    <title>White / Facebook</title>
    <desc>Created with Sketch.</desc>
    <defs></defs>
    <g id="Symbols" stroke="none" stroke-width="1" fill="none" fill-rule="evenodd">
        <g id="Buttons/Social/facebook" transform="translate(-39.000000, -10.000000)" fill="#FFFFFF">
            <g id="Group" transform="translate(39.000000, 10.000000)">
                <g id="White-/-Facebook">
                    <path d="M15.8485333,15.20896 C15.8485333,15.6864 15.4615467,16.0733867 14.9841067,16.0733867 L10.99264,16.0733867 L10.99264,10.0074667 L13.0286933,10.0074667 L13.33376,7.64373333 L10.99264,7.64373333 L10.99264,6.13461333 C10.99264,5.45024 11.1829333,4.98346667 12.1642667,4.98346667 L13.4161067,4.98304 L13.4161067,2.86890667 C13.19936,2.83989333 12.4565333,2.77546667 11.5921067,2.77546667 C9.78730667,2.77546667 8.55168,3.87712 8.55168,5.90037333 L8.55168,7.64373333 L6.51050667,7.64373333 L6.51050667,10.0074667 L8.55168,10.0074667 L8.55168,16.0733867 L1.0496,16.0733867 C0.57216,16.0733867 0.185173333,15.6864 0.185173333,15.20896 L0.185173333,1.27445333 C0.185173333,0.797013333 0.57216,0.410026667 1.0496,0.410026667 L14.9841067,0.410026667 C15.4615467,0.410026667 15.8485333,0.797013333 15.8485333,1.27445333 L15.8485333,15.20896" id="Fill-12"></path>
                </g>
            </g>
        </g>
    </g>
</svg>