<?xml version="1.0" encoding="UTF-8"?>
<svg width="20px" height="20px" viewBox="0 0 20 20" version="1.1" xmlns="http://www.w3.org/2000/svg" xmlns:xlink="http://www.w3.org/1999/xlink">
    <!-- Generator: Sketch 49 (51002) - http://www.bohemiancoding.com/sketch -->
    <title>Shape</title>
    <desc>Created with Sketch.</desc>
    <defs></defs>
    <g id="Symbols" stroke="none" stroke-width="1" fill="none" fill-rule="evenodd">
        <g id="Icons/question" transform="translate(-2.000000, -2.000000)" fill="#694E9F" fill-rule="nonzero">
            <path d="M12.0000004,2 L12,2 C6.47715333,2.00000024 2,6.47715333 2,12 C2.00000024,17.5228467 6.47715333,22 12,22 C17.5228467,21.9999998 22,17.5228467 22,12 L22,12.0000004 C22,6.47715377 17.5228467,2.00000044 12,2.00000044 L12.0000004,2 Z M11.7333338,18 C10.9270071,17.9963096 10.2763404,17.3396607 10.2800337,16.5333333 C10.2837241,15.7270067 10.9403731,15.07634 11.7467004,15.0800333 C12.5478137,15.0836998 13.1963337,15.7322227 13.2000004,16.5333333 L13.2000005,16.5333468 C13.2036834,17.3396735 12.5530118,17.9963201 11.7466871,18.0000001 C11.7422325,18.0000205 11.7377779,18.0000204 11.7333233,18 L11.7333338,18 Z M13.0133338,13.1333333 C13.0133338,13.8255333 12.4521971,14.3866667 11.7600004,14.3866667 C11.0678004,14.3866667 10.5066671,13.82553 10.5066671,13.1333333 C10.5066671,11.5266667 11.5066671,10.7133333 12.2400004,10.12 C14.2400004,8.50666667 11.5400004,8.12 10.3800004,8.82666667 C9.82947503,9.20222338 9.07874037,9.06038272 8.70318037,8.50985805 C8.56712837,8.31042005 8.49402903,8.07475672 8.49333237,7.83333138 L8.49333232,7.83333459 C8.50002945,7.37981992 8.75642965,6.96701459 9.15999632,6.76000126 L9.15999672,6.76000101 C9.95728338,6.25760901 10.8845034,6.00030767 11.8266634,6.02000101 C14.0199967,6.02000101 15.49333,7.30000101 15.49333,9.20666767 C15.5066658,11.620001 13.01333,11.9533343 13.01333,13.120001 L13.0133338,13.1333333 Z" id="Shape"></path>
        </g>
    </g>
</svg>