<?xml version="1.0" encoding="UTF-8"?>
<svg width="24px" height="24px" viewBox="0 0 24 24" version="1.1" xmlns="http://www.w3.org/2000/svg" xmlns:xlink="http://www.w3.org/1999/xlink">
    <!-- Generator: Sketch 49 (51002) - http://www.bohemiancoding.com/sketch -->
    <title>Colored / Instagram</title>
    <desc>Created with Sketch.</desc>
    <defs></defs>
    <g id="ла" stroke="none" stroke-width="1" fill="none" fill-rule="evenodd">
        <g id="9.-Screen-Reply" transform="translate(-308.000000, -869.000000)" fill="#BC0F59" fill-rule="nonzero">
            <g id="Social" transform="translate(135.000000, 845.000000)">
                <g transform="translate(125.000000, 24.000000)" id="Colored-/-Instagram">
                    <g transform="translate(48.000000, 0.000000)">
                        <path d="M11.956,5.83563474 C8.564,5.83563474 5.828,8.57772829 5.828,11.9772829 C5.828,15.3768374 8.564,18.118931 11.956,18.118931 C15.348,18.118931 18.084,15.3768374 18.084,11.9772829 C18.084,8.57772829 15.348,5.83563474 11.956,5.83563474 Z M11.956,15.9701559 C9.764,15.9701559 7.972,14.17951 7.972,11.9772829 C7.972,9.77505568 9.75866667,7.9844098 11.956,7.9844098 C14.1533333,7.9844098 15.94,9.77505568 15.94,11.9772829 C15.94,14.17951 14.148,15.9701559 11.956,15.9701559 Z M19.764,5.5844098 C19.764,6.38084633 19.124,7.0169265 18.3346667,7.0169265 C17.54,7.0169265 16.9053333,6.37550111 16.9053333,5.5844098 C16.9053333,4.79331849 17.5453333,4.1518931 18.3346667,4.1518931 C19.124,4.1518931 19.764,4.79331849 19.764,5.5844098 Z M23.8226667,7.03830735 C23.732,5.11937639 23.2946667,3.41959911 21.892,2.01915367 C20.4946667,0.618708241 18.7986667,0.180400891 16.884,0.0841870824 C14.9106667,-0.0280623608 8.996,-0.0280623608 7.02266667,0.0841870824 C5.11333333,0.175055679 3.41733333,0.613363029 2.01466667,2.01380846 C0.612,3.4142539 0.18,5.11403118 0.084,7.03296214 C-0.028,9.01069042 -0.028,14.9385301 0.084,16.9162584 C0.174666667,18.8351893 0.612,20.5349666 2.01466667,21.935412 C3.41733333,23.3358575 5.108,23.7741648 7.02266667,23.8703786 C8.996,23.9826281 14.9106667,23.9826281 16.884,23.8703786 C18.7986667,23.77951 20.4946667,23.3412027 21.892,21.935412 C23.2893333,20.5349666 23.7266667,18.8351893 23.8226667,16.9162584 C23.9346667,14.9385301 23.9346667,9.01603563 23.8226667,7.03830735 Z M21.2733333,19.0383073 C20.8573333,20.0859688 20.052,20.8930958 19.0013333,21.3153675 C17.428,21.9407572 13.6946667,21.7964365 11.956,21.7964365 C10.2173333,21.7964365 6.47866667,21.935412 4.91066667,21.3153675 C3.86533333,20.898441 3.06,20.091314 2.63866667,19.0383073 C2.01466667,17.4614699 2.15866667,13.7198218 2.15866667,11.9772829 C2.15866667,10.2347439 2.02,6.48775056 2.63866667,4.91625835 C3.05466667,3.86859688 3.86,3.06146993 4.91066667,2.63919822 C6.484,2.01380846 10.2173333,2.15812918 11.956,2.15812918 C13.6946667,2.15812918 17.4333333,2.01915367 19.0013333,2.63919822 C20.0466667,3.05612472 20.852,3.86325167 21.2733333,4.91625835 C21.8973333,6.49309577 21.7533333,10.2347439 21.7533333,11.9772829 C21.7533333,13.7198218 21.8973333,17.4668151 21.2733333,19.0383073 Z" id="Shape"></path>
                    </g>
                </g>
            </g>
        </g>
    </g>
</svg>