<?xml version="1.0" encoding="UTF-8"?>
<svg width="18px" height="18px" viewBox="0 0 18 18" version="1.1" xmlns="http://www.w3.org/2000/svg" xmlns:xlink="http://www.w3.org/1999/xlink">
    <!-- Generator: Sketch 49 (51002) - http://www.bohemiancoding.com/sketch -->
    <title>Shape</title>
    <desc>Created with Sketch.</desc>
    <defs></defs>
    <g id="Symbols" stroke="none" stroke-width="1" fill="none" fill-rule="evenodd">
        <g id="Icons/life" transform="translate(-3.000000, -3.000000)" fill="#FFFFFF" fill-rule="nonzero">
            <path d="M3.5,13 L10.5,13 C10.7761424,13 11,12.7761424 11,12.5 L11,3.5 C11,3.22385763 10.7761424,3 10.5,3 L3.5,3 C3.22385763,3 3,3.22385763 3,3.5 L3,12.5 C3,12.7761424 3.22385763,13 3.5,13 Z M3.5,21 L10.5,21 C10.7761424,21 11,20.7761424 11,20.5 L11,15.5 C11,15.2238576 10.7761424,15 10.5,15 L3.5,15 C3.22385763,15 3,15.2238576 3,15.5 L3,20.5 C3,20.7761424 3.22385763,21 3.5,21 Z M13.5,21 L20.5,21 C20.7761424,21 21,20.7761424 21,20.5 L21,11.5 C21,11.2238576 20.7761424,11 20.5,11 L13.5,11 C13.2238576,11 13,11.2238576 13,11.5 L13,20.5 C13,20.7761424 13.2238576,21 13.5,21 Z M13,3.5 L13,8.5 C13,8.77614237 13.2238576,9 13.5,9 L20.5,9 C20.7761424,9 21,8.77614237 21,8.5 L21,3.5 C21,3.22385763 20.7761424,3 20.5,3 L13.5,3 C13.2238576,3 13,3.22385763 13,3.5 Z" id="Shape"></path>
        </g>
    </g>
</svg>