<?xml version="1.0" encoding="UTF-8"?>
<svg width="17px" height="20px" viewBox="0 0 17 20" version="1.1" xmlns="http://www.w3.org/2000/svg" xmlns:xlink="http://www.w3.org/1999/xlink">
    <!-- Generator: Sketch 49 (51002) - http://www.bohemiancoding.com/sketch -->
    <title>Shape</title>
    <desc>Created with Sketch.</desc>
    <defs></defs>
    <g id="Symbols" stroke="none" stroke-width="1" fill="none" fill-rule="evenodd">
        <g id="Icons/Menu/play" transform="translate(-4.000000, -2.000000)" fill="#FFDF00" fill-rule="nonzero">
            <path d="M8.51970948,21.8904435 C8.37331995,22.0229507 8.15701426,22.0367127 7.99555598,21.9237914 C7.84185849,21.8215888 7.76830797,21.6317367 7.8121023,21.4502515 L9.8628528,13.3200377 L4.4182085,13.3200377 C4.18662374,13.3194111 3.99938629,13.1277951 4.00000151,12.8920516 C4.00032967,12.7663708 4.05505185,12.6472241 4.14957985,12.5663755 L16.5130501,2.08180117 C16.6617413,1.97273294 16.8623047,1.97273294 17.0109959,2.08180114 C17.1646928,2.18400373 17.2382439,2.37385589 17.1944496,2.55534107 L15.1436991,10.652207 L20.5817915,10.652207 C20.8133763,10.6528336 21.0006137,10.8444496 20.9999985,11.0801931 C20.9996703,11.2058739 20.9449482,11.3250206 20.8504202,11.4058692 L8.51970948,21.8904435 Z" id="Shape"></path>
        </g>
    </g>
</svg>