<?xml version="1.0" encoding="UTF-8"?>
<svg width="570px" height="93px" viewBox="0 0 570 93" version="1.1" xmlns="http://www.w3.org/2000/svg" xmlns:xlink="http://www.w3.org/1999/xlink">
    <!-- Generator: Sketch 49 (51002) - http://www.bohemiancoding.com/sketch -->
    <title>Logo</title>
    <desc>Created with Sketch.</desc>
    <defs></defs>
    <g id="Page-1" stroke="none" stroke-width="1" fill="none" fill-rule="evenodd">
        <g id="1.-Web-Registration-1" transform="translate(-435.000000, -100.000000)">
            <g id="Logo" transform="translate(435.000000, 100.000000)">
                <path d="M60.6031088,11.89875 C60.6031088,10.2362417 60.910256,8.69250712 61.5245596,7.2675 C62.1388632,5.84249287 62.9894246,4.59563034 64.0762694,3.526875 C65.1631142,2.45811966 66.4271431,1.61500309 67.8683938,0.9975 C69.3096445,0.379996912 70.8571938,0.07125 72.5110881,0.07125 C74.1649824,0.07125 75.7125317,0.379996912 77.1537824,0.9975 C78.5950331,1.61500309 79.8590619,2.45811966 80.9459067,3.526875 C82.0327515,4.59563034 82.883313,5.84249287 83.4976166,7.2675 C84.1119202,8.69250712 84.4190674,10.2362417 84.4190674,11.89875 L84.4190674,50.73 C84.4190674,56.3825283 83.3322388,61.7262248 81.1585492,66.76125 C78.9848596,71.7962752 76.0315213,76.1899812 72.2984456,79.9425 C68.5653699,83.6950188 64.1944292,86.6637391 59.1854922,88.84875 C54.1765553,91.0337609 48.8369195,92.12625 43.1664249,92.12625 C39.3860951,92.12625 35.6885155,91.627505 32.0735751,90.63 C28.4586348,89.632495 25.0445757,88.231259 21.8312953,86.42625 C18.618015,84.621241 15.67649,82.4481377 13.0066321,79.906875 C10.3367742,77.3656123 8.04498366,74.5512654 6.13119171,71.46375 C4.21739976,68.3762346 2.71710388,65.0750176 1.63025907,61.56 C0.543414255,58.0449824 0,54.387519 0,50.5875 L0,11.97 C0,10.3074917 0.307147188,8.75188224 0.921450777,7.303125 C1.53575437,5.85436776 2.38631581,4.58375546 3.47316062,3.49125 C4.56000543,2.39874454 5.8358476,1.54375309 7.30072539,0.92625 C8.76560318,0.308746912 10.3249658,0 11.9788601,0 C13.6327544,0 15.1803037,0.308746912 16.6215544,0.92625 C18.0628051,1.54375309 19.3268339,2.39874454 20.4136788,3.49125 C21.5005236,4.58375546 22.351085,5.85436776 22.9653886,7.303125 C23.5796922,8.75188224 23.8868394,10.3074917 23.8868394,11.97 L23.8868394,50.5875 C23.8868394,53.0575124 24.4302536,55.3612393 25.5170984,57.49875 C26.6039433,59.6362607 28.0569857,61.4887422 29.8762694,63.05625 C31.6955531,64.6237578 33.76289,65.8587455 36.078342,66.76125 C38.393794,67.6637545 40.7564646,68.115 43.1664249,68.115 C45.5763851,68.115 47.844549,67.6756294 49.9709845,66.796875 C52.09742,65.9181206 53.9403031,64.6950078 55.4996891,63.1275 C57.0590752,61.5599922 58.2994773,59.7193856 59.2209326,57.605625 C60.142388,55.4918644 60.6031088,53.2000123 60.6031088,50.73 L60.6031088,11.89875 Z M120.851813,42.25125 L120.851813,79.44375 C120.851813,81.1062583 120.544666,82.6618678 119.930363,84.110625 C119.316059,85.5593822 118.465498,86.8181197 117.378653,87.886875 C116.291808,88.9556303 115.015966,89.786872 113.551088,90.380625 C112.08621,90.974378 110.526848,91.27125 108.872953,91.27125 C107.219059,91.27125 105.67151,90.974378 104.230259,90.380625 C102.789008,89.786872 101.52498,88.9556303 100.438135,87.886875 C99.3512899,86.8181197 98.5007285,85.5593822 97.8864249,84.110625 C97.2721213,82.6618678 96.9649741,81.1062583 96.9649741,79.44375 L96.9649741,12.255 C96.9649741,10.6874922 97.2484946,9.17938224 97.815544,7.730625 C98.3825935,6.28186776 99.1859015,4.9875057 100.225492,3.8475 C101.265083,2.7074943 102.517298,1.79312844 103.982176,1.104375 C105.447054,0.415621556 107.077297,0.07125 108.872953,0.07125 C112.464267,0.07125 115.606619,1.56748504 118.300104,4.56 L157.28456,48.165 L157.28456,11.8275 C157.28456,10.1649917 157.60352,8.62125712 158.241451,7.19625 C158.879381,5.77124287 159.75357,4.52438034 160.864041,3.455625 C161.974513,2.38686966 163.262169,1.55562797 164.727047,0.961875 C166.191924,0.368122031 167.751287,0.07125 169.405181,0.07125 C171.059076,0.07125 172.594812,0.368122031 174.012435,0.961875 C175.430059,1.55562797 176.670461,2.38686966 177.733679,3.455625 C178.796897,4.52438034 179.635645,5.77124287 180.249948,7.19625 C180.864252,8.62125712 181.171399,10.1649917 181.171399,11.8275 L181.171399,79.44375 C181.171399,81.0587581 180.876065,82.5906178 180.285389,84.039375 C179.694712,85.4881322 178.867777,86.7468697 177.80456,87.815625 C176.741342,88.8843803 175.4655,89.7274969 173.976995,90.345 C172.48849,90.9625031 170.846434,91.27125 169.050777,91.27125 L168.271088,91.27125 C166.711702,91.1287493 165.32954,90.6775038 164.12456,89.9175 C162.919579,89.1574962 161.797311,88.0887569 160.75772,86.71125 L120.851813,42.25125 Z M218.100311,79.44375 C218.100311,81.1062583 217.793164,82.6618678 217.17886,84.110625 C216.564557,85.5593822 215.713995,86.8181197 214.62715,87.886875 C213.540305,88.9556303 212.264463,89.786872 210.799585,90.380625 C209.334708,90.974378 207.775345,91.27125 206.121451,91.27125 C204.467556,91.27125 202.920007,90.974378 201.478756,90.380625 C200.037506,89.786872 198.773477,88.9556303 197.686632,87.886875 C196.599787,86.8181197 195.749226,85.5593822 195.134922,84.110625 C194.520619,82.6618678 194.213472,81.1062583 194.213472,79.44375 L194.213472,11.89875 C194.213472,10.2362417 194.520619,8.69250712 195.134922,7.2675 C195.749226,5.84249287 196.599787,4.59563034 197.686632,3.526875 C198.773477,2.45811966 200.037506,1.61500309 201.478756,0.9975 C202.920007,0.379996913 204.467556,0.07125 206.121451,0.07125 C207.775345,0.07125 209.334708,0.379996913 210.799585,0.9975 C212.264463,1.61500309 213.540305,2.45811966 214.62715,3.526875 C215.713995,4.59563034 216.564557,5.84249287 217.17886,7.2675 C217.793164,8.69250712 218.100311,10.2362417 218.100311,11.89875 L218.100311,79.44375 Z M241.98715,91.27125 C240.427764,91.1287493 238.986535,90.7368782 237.66342,90.095625 C236.340304,89.4543718 235.182596,88.6231301 234.190259,87.601875 C233.197922,86.5806199 232.418241,85.3931318 231.851192,84.039375 C231.284142,82.6856182 231.000622,81.2012581 231.000622,79.58625 L231.000622,12.04125 C231.000622,10.4262419 231.307769,8.88250736 231.922073,7.41 C232.536376,5.93749264 233.375124,4.66688034 234.438342,3.598125 C235.50156,2.52936966 236.753775,1.67437821 238.195026,1.033125 C239.636277,0.391871794 241.207453,0.07125 242.908601,0.07125 L287.138238,0.07125 C288.792133,0.07125 290.339682,0.391871794 291.780933,1.033125 C293.222183,1.67437821 294.474399,2.52936966 295.537617,3.598125 C296.600834,4.66688034 297.427769,5.93749264 298.018446,7.41 C298.609122,8.88250736 298.904456,10.4262419 298.904456,12.04125 C298.904456,13.7037583 298.609122,15.2712426 298.018446,16.74375 C297.427769,18.2162574 296.600834,19.4987445 295.537617,20.59125 C294.474399,21.6837555 293.222183,22.5387469 291.780933,23.15625 C290.339682,23.7737531 288.792133,24.0825 287.138238,24.0825 L254.887461,24.0825 L254.887461,32.27625 L281.538653,32.27625 C283.192547,32.2287498 284.740096,32.5256218 286.181347,33.166875 C287.622598,33.8081282 288.886627,34.6868694 289.973472,35.803125 C291.060316,36.9193806 291.910878,38.2256175 292.525181,39.721875 C293.139485,41.2181325 293.446632,42.7974917 293.446632,44.46 C293.446632,46.1225083 293.139485,47.6662429 292.525181,49.09125 C291.910878,50.5162571 291.060316,51.7512448 289.973472,52.79625 C288.886627,53.8412552 287.622598,54.660622 286.181347,55.254375 C284.740096,55.848128 283.192547,56.145 281.538653,56.145 L254.887461,56.145 L254.887461,67.26 L287.138238,67.26 C288.792133,67.26 290.339682,67.5924967 291.780933,68.2575 C293.222183,68.9225033 294.474399,69.8131194 295.537617,70.929375 C296.600834,72.0456306 297.427769,73.3399926 298.018446,74.8125 C298.609122,76.2850074 298.904456,77.8524917 298.904456,79.515 C298.904456,81.1775083 298.609122,82.7331178 298.018446,84.181875 C297.427769,85.6306322 296.600834,86.8893697 295.537617,87.958125 C294.474399,89.0268803 293.222183,89.858122 291.780933,90.451875 C290.339682,91.045628 288.792133,91.3187502 287.138238,91.27125 L241.98715,91.27125 Z" id="UNIELIVE" fill="#FFFFFF"></path>
                <path d="M332.076684,67.26 L361.066943,67.4025 C362.720837,67.4025 364.268387,67.7349967 365.709637,68.4 C367.150888,69.0650033 368.403103,69.9437445 369.466321,71.03625 C370.529539,72.1287555 371.368287,73.4112426 371.982591,74.88375 C372.596894,76.3562574 372.904041,77.8999919 372.904041,79.515 C372.904041,81.2250085 372.596894,82.8043678 371.982591,84.253125 C371.368287,85.7018822 370.529539,86.9368699 369.466321,87.958125 C368.403103,88.9793801 367.150888,89.786872 365.709637,90.380625 C364.268387,90.974378 362.720837,91.27125 361.066943,91.27125 L320.59399,91.27125 C318.798333,91.081249 317.13265,90.6537533 315.596891,89.98875 C314.061132,89.3237467 312.74985,88.4212557 311.663005,87.28125 C310.57616,86.1412443 309.725599,84.7518832 309.111295,83.113125 C308.496992,81.4743668 308.189845,79.5625109 308.189845,77.3775 L308.189845,11.8275 C308.189845,10.1649917 308.496992,8.62125712 309.111295,7.19625 C309.725599,5.77124287 310.57616,4.52438034 311.663005,3.455625 C312.74985,2.38686966 314.013879,1.55562797 315.45513,0.961875 C316.89638,0.368122031 318.44393,0.07125 320.097824,0.07125 C321.751718,0.07125 323.311081,0.368122031 324.775959,0.961875 C326.240836,1.55562797 327.516679,2.38686966 328.603523,3.455625 C329.690368,4.52438034 330.54093,5.77124287 331.155233,7.19625 C331.769537,8.62125712 332.076684,10.1649917 332.076684,11.8275 L332.076684,67.26 Z M405.154819,79.44375 C405.154819,81.1062583 404.847671,82.6618678 404.233368,84.110625 C403.619064,85.5593822 402.768503,86.8181197 401.681658,87.886875 C400.594813,88.9556303 399.318971,89.786872 397.854093,90.380625 C396.389215,90.974378 394.829853,91.27125 393.175959,91.27125 C391.522064,91.27125 389.974515,90.974378 388.533264,90.380625 C387.092014,89.786872 385.827985,88.9556303 384.74114,87.886875 C383.654295,86.8181197 382.803734,85.5593822 382.18943,84.110625 C381.575126,82.6618678 381.267979,81.1062583 381.267979,79.44375 L381.267979,11.89875 C381.267979,10.2362417 381.575126,8.69250712 382.18943,7.2675 C382.803734,5.84249287 383.654295,4.59563034 384.74114,3.526875 C385.827985,2.45811966 387.092014,1.61500309 388.533264,0.9975 C389.974515,0.379996912 391.522064,0.07125 393.175959,0.07125 C394.829853,0.07125 396.389215,0.379996912 397.854093,0.9975 C399.318971,1.61500309 400.594813,2.45811966 401.681658,3.526875 C402.768503,4.59563034 403.619064,5.84249287 404.233368,7.2675 C404.847671,8.69250712 405.154819,10.2362417 405.154819,11.89875 L405.154819,79.44375 Z M413.731399,16.53 C413.117095,15.1049929 412.809948,13.5850081 412.809948,11.97 C412.809948,10.4974926 413.105282,9.04875713 413.695959,7.62375 C414.286635,6.19874287 415.101756,4.92813058 416.141347,3.811875 C417.180938,2.69561942 418.433153,1.80500332 419.898031,1.14 C421.362909,0.474996675 422.993152,0.1425 424.788808,0.1425 C427.057006,0.1425 429.171596,0.783743588 431.132642,2.06625 C433.093689,3.34875641 434.570358,5.15373836 435.562694,7.48125 L453.424663,49.51875 L471.07399,7.48125 C472.019072,5.2012386 473.495741,3.40813153 475.504041,2.101875 C477.512342,0.795618469 479.674185,0.1425 481.989637,0.1425 C483.73804,0.1425 485.332843,0.474996675 486.774093,1.14 C488.215344,1.80500332 489.455746,2.67186966 490.495337,3.740625 C491.534927,4.80938034 492.350049,6.05624287 492.940725,7.48125 C493.531402,8.90625712 493.826736,10.3549926 493.826736,11.8275 C493.826736,13.3950078 493.495962,14.9862419 492.834404,16.60125 L464.340311,83.86125 C463.347974,86.1887616 461.847678,88.0056185 459.839378,89.311875 C457.831078,90.6181315 455.621981,91.27125 453.212021,91.27125 C450.896569,91.27125 448.770165,90.6418813 446.832746,89.383125 C444.895327,88.1243687 443.406845,86.2837621 442.367254,83.86125 L413.731399,16.53 Z M512.18487,91.27125 C510.625484,91.1287493 509.184255,90.7368782 507.86114,90.095625 C506.538024,89.4543718 505.380316,88.6231301 504.387979,87.601875 C503.395643,86.5806199 502.615961,85.3931318 502.048912,84.039375 C501.481862,82.6856182 501.198342,81.2012581 501.198342,79.58625 L501.198342,12.04125 C501.198342,10.4262419 501.505489,8.88250736 502.119793,7.41 C502.734096,5.93749264 503.572844,4.66688034 504.636062,3.598125 C505.69928,2.52936966 506.951495,1.67437821 508.392746,1.033125 C509.833997,0.391871794 511.405173,0.07125 513.106321,0.07125 L557.335959,0.07125 C558.989853,0.07125 560.537402,0.391871794 561.978653,1.033125 C563.419904,1.67437821 564.672119,2.52936966 565.735337,3.598125 C566.798555,4.66688034 567.625489,5.93749264 568.216166,7.41 C568.806842,8.88250736 569.102176,10.4262419 569.102176,12.04125 C569.102176,13.7037583 568.806842,15.2712426 568.216166,16.74375 C567.625489,18.2162574 566.798555,19.4987445 565.735337,20.59125 C564.672119,21.6837555 563.419904,22.5387469 561.978653,23.15625 C560.537402,23.7737531 558.989853,24.0825 557.335959,24.0825 L525.085181,24.0825 L525.085181,32.27625 L551.736373,32.27625 C553.390267,32.2287498 554.937817,32.5256218 556.379067,33.166875 C557.820318,33.8081282 559.084347,34.6868694 560.171192,35.803125 C561.258037,36.9193806 562.108598,38.2256175 562.722902,39.721875 C563.337205,41.2181325 563.644352,42.7974917 563.644352,44.46 C563.644352,46.1225083 563.337205,47.6662429 562.722902,49.09125 C562.108598,50.5162571 561.258037,51.7512448 560.171192,52.79625 C559.084347,53.8412552 557.820318,54.660622 556.379067,55.254375 C554.937817,55.848128 553.390267,56.145 551.736373,56.145 L525.085181,56.145 L525.085181,67.26 L557.335959,67.26 C558.989853,67.26 560.537402,67.5924967 561.978653,68.2575 C563.419904,68.9225033 564.672119,69.8131194 565.735337,70.929375 C566.798555,72.0456306 567.625489,73.3399926 568.216166,74.8125 C568.806842,76.2850074 569.102176,77.8524917 569.102176,79.515 C569.102176,81.1775083 568.806842,82.7331178 568.216166,84.181875 C567.625489,85.6306322 566.798555,86.8893697 565.735337,87.958125 C564.672119,89.0268803 563.419904,89.858122 561.978653,90.451875 C560.537402,91.045628 558.989853,91.3187502 557.335959,91.27125 L512.18487,91.27125 Z" id="Combined-Shape" fill="#FFDF00"></path>
            </g>
        </g>
    </g>
</svg>