<?xml version="1.0" encoding="UTF-8"?>
<svg width="20px" height="16px" viewBox="0 0 20 16" version="1.1" xmlns="http://www.w3.org/2000/svg" xmlns:xlink="http://www.w3.org/1999/xlink">
    <!-- Generator: Sketch 49 (51002) - http://www.bohemiancoding.com/sketch -->
    <title>Shape</title>
    <desc>Created with Sketch.</desc>
    <defs></defs>
    <g id="Symbols" stroke="none" stroke-width="1" fill="none" fill-rule="evenodd">
        <g id="Icons/Menu/help" transform="translate(-2.000000, -4.000000)" fill="#FF0040" fill-rule="nonzero">
            <path d="M18.1533225,4 L5.84666421,4 C3.72524566,4.00731527 2.0073135,5.72524633 2.00000017,7.84666591 L2.00000017,16.153331 L2,16.1532808 C2.00728773,18.2747003 3.72519882,19.9926533 5.84661071,20 L18.1533357,20 C20.2747543,19.9926847 21.9926865,18.2747537 21.9999998,16.1533341 L21.9999998,7.84666904 L22,7.84671894 C21.9927121,5.72529936 20.2748012,4.00734636 18.1533826,4.00000636 L18.1533225,4 Z M7.25332992,15.9199977 L5.33333123,17.866664 C4.77504239,17.6646114 4.33538535,17.2249535 4.13333216,16.6666642 L6.0799975,14.7199979 C6.40584526,14.39415 6.93415023,14.39415 7.25999668,14.719998 C7.58584446,15.0458459 7.58584446,15.5741511 7.25999669,15.8999977 L7.25332992,15.9199977 Z M18.6666555,17.866664 L16.7199901,15.9199977 C16.3941424,15.5941497 16.3941424,15.0658445 16.7199902,14.7399979 C17.0458379,14.41415 17.5741429,14.41415 17.8999894,14.7399979 L19.8666547,16.6666642 L19.8666547,16.6666641 C19.6646022,17.2249533 19.2249445,17.6646105 18.6666555,17.8666638 L18.6666555,17.866664 Z M19.9999879,8.33999915 L15.2933244,12.8466649 C13.3686724,14.7620846 10.2579812,14.7620846 8.33332919,12.8466649 L3.99999881,8.43999914 L3.99999881,7.99999922 L3.99999874,8.0000121 C4.00366123,7.37167222 4.30240453,6.78158567 4.80665152,6.40667241 L9.75998148,11.4266714 C10.9045541,12.5666446 12.7554062,12.5666446 13.8999787,11.4266714 L19.1599751,6.3800057 C19.6843673,6.75335355 19.9970011,7.35628544 19.9999878,7.99999864 L19.9999879,8.33999915 Z" id="Shape"></path>
        </g>
    </g>
</svg>