<?xml version="1.0" encoding="UTF-8"?>
<svg width="20px" height="20px" viewBox="0 0 20 20" version="1.1" xmlns="http://www.w3.org/2000/svg" xmlns:xlink="http://www.w3.org/1999/xlink">
    <!-- Generator: Sketch 49 (51002) - http://www.bohemiancoding.com/sketch -->
    <title>Shape</title>
    <desc>Created with Sketch.</desc>
    <defs></defs>
    <g id="Symbols" stroke="none" stroke-width="1" fill="none" fill-rule="evenodd">
        <g id="Icons/users2" transform="translate(-2.000000, -2.000000)" fill="#694E9F" fill-rule="nonzero">
            <path d="M12,2 C6.48545455,2 2,6.48727273 2,12 C2,14.7527273 3.11818182,17.2490909 4.92545455,19.06 C4.93090909,19.0654545 4.93090909,19.0727273 4.93454545,19.0763636 C4.95818182,19.1 4.98909091,19.1163636 5.01272727,19.14 C5.44181818,19.56 5.90545455,19.9454545 6.40545455,20.2836364 C6.46909091,20.3272727 6.53818182,20.3618182 6.60181818,20.4054545 C7.08363636,20.7163636 7.58727273,20.9909091 8.12,21.2163636 C8.18363636,21.2436364 8.25090909,21.2618182 8.31636364,21.2890909 C8.86,21.5054545 9.42181818,21.6818182 10.0054545,21.8 C10.0418182,21.8072727 10.0781818,21.8090909 10.1145455,21.8163636 C10.7272727,21.9327273 11.3563636,22 12,22 C12.6436364,22 13.2727273,21.9327273 13.8836364,21.8163636 C13.92,21.8090909 13.9581818,21.8072727 13.9945455,21.8 C14.5781818,21.6818182 15.14,21.5054545 15.6836364,21.2890909 C15.7490909,21.2636364 15.8163636,21.2436364 15.88,21.2163636 C16.4127273,20.9909091 16.9163636,20.7145455 17.3981818,20.4054545 C17.4636364,20.3636364 17.5309091,20.3272727 17.5945455,20.2854545 C18.0945455,19.9472727 18.5581818,19.5618182 18.9872727,19.1418182 C19.0109091,19.1181818 19.04,19.1018182 19.0636364,19.0781818 C19.0690909,19.0727273 19.0690909,19.0672727 19.0727273,19.0618182 C20.8818182,17.2490909 22,14.7527273 22,12 C22,6.48727273 17.5145455,2 12,2 Z M16.9145455,18.5 C16.7236364,18.6436364 16.5345455,18.7909091 16.3309091,18.9145455 C16.1690909,19.0163636 15.9927273,19.1 15.8236364,19.1909091 C13.46,20.4036364 10.5418182,20.4036364 8.17818182,19.1909091 C8.00727273,19.1 7.83272727,19.0181818 7.67090909,18.9145455 C7.46727273,18.7909091 7.27818182,18.6436364 7.08727273,18.5 C6.94363636,18.3909091 6.80727273,18.2745455 6.67090909,18.1563636 C7.63272727,16.0836364 9.7,14.7272727 12,14.7272727 C14.3,14.7272727 16.3672727,16.0836364 17.3309091,18.1563636 C17.1945455,18.2745455 17.0581818,18.3909091 16.9145455,18.5 Z M9.27272727,10.1818182 C9.27272727,8.67818182 10.4963636,7.45454545 12,7.45454545 C13.5036364,7.45454545 14.7272727,8.67818182 14.7272727,10.1818182 C14.7272727,11.6854545 13.5036364,12.9090909 12,12.9090909 C10.4963636,12.9090909 9.27272727,11.6854545 9.27272727,10.1818182 Z M18.6309091,16.7545455 C17.7909091,15.3127273 16.52,14.2018182 15.02,13.5545455 C15.9490909,12.7218182 16.5454545,11.5254545 16.5454545,10.1818182 C16.5454545,7.67454545 14.5054545,5.63636364 12,5.63636364 C9.49454545,5.63636364 7.45454545,7.67454545 7.45454545,10.1818182 C7.45454545,11.5254545 8.05090909,12.7218182 8.98181818,13.5545455 C7.48,14.2018182 6.21090909,15.3127273 5.37090909,16.7545455 C4.40363636,15.4127273 3.81818182,13.7781818 3.81818182,12 C3.81818182,7.48909091 7.48909091,3.81818182 12,3.81818182 C16.5109091,3.81818182 20.1818182,7.48909091 20.1818182,12 C20.1818182,13.7781818 19.5963636,15.4127273 18.6309091,16.7545455 Z" id="Shape"></path>
        </g>
    </g>
</svg>