<?xml version="1.0" encoding="UTF-8"?>
<svg width="52px" height="52px" viewBox="0 0 52 52" version="1.1" xmlns="http://www.w3.org/2000/svg" xmlns:xlink="http://www.w3.org/1999/xlink">
    <!-- Generator: Sketch 49 (51002) - http://www.bohemiancoding.com/sketch -->
    <title>play</title>
    <desc>Created with Sketch.</desc>
    <defs></defs>
    <g id="Symbols" stroke="none" stroke-width="1" fill="none" fill-rule="evenodd">
        <g id="Cards/How" fill="#48A0DC">
            <g id="play">
                <path d="M26,0 C11.6415,0 0,11.6415 0,26 C0,40.360125 11.6415,52 26,52 C40.3585,52 52,40.360125 52,26 C52,11.6415 40.3585,0 26,0 Z M26,48.75 C13.4355,48.75 3.25,38.562875 3.25,26 C3.25,13.4355 13.4355,3.25 26,3.25 C38.5645,3.25 48.75,13.4355 48.75,26 C48.75,38.562875 38.5645,48.75 26,48.75 Z" id="Shape"></path>
                <g id="Group" transform="translate(21.000000, 18.000000)" fill-rule="nonzero">
                    <path d="M12.97725,8.01563636 C12.987,7.4089697 12.7205,6.81333333 12.194,6.49030303 L2.461875,0.499272727 C2.21325,0.349575758 1.938625,0.240848485 1.625,0.240848485 C0.728,0.240848485 0,0.946787879 0,1.81818182 L0,14.4242424 C0,15.2940606 0.728,16 1.625,16 C1.92725,16 2.19375,15.8991515 2.435875,15.7589091 L12.194,9.75212121 C12.7205,9.42751515 12.987,8.83345455 12.97725,8.22678788 C12.982125,8.19212121 12.9805,8.15587879 12.98375,8.12121212 C12.9805,8.0849697 12.982125,8.05030303 12.97725,8.01563636 Z" id="Shape"></path>
                </g>
            </g>
        </g>
    </g>
</svg>