<?xml version="1.0" encoding="UTF-8"?>
<svg width="19px" height="20px" viewBox="0 0 19 20" version="1.1" xmlns="http://www.w3.org/2000/svg" xmlns:xlink="http://www.w3.org/1999/xlink">
    <!-- Generator: Sketch 49 (51002) - http://www.bohemiancoding.com/sketch -->
    <title>Shape</title>
    <desc>Created with Sketch.</desc>
    <defs></defs>
    <g id="Symbols" stroke="none" stroke-width="1" fill="none" fill-rule="evenodd">
        <g id="Icons/share2" transform="translate(-2.000000, -2.000000)" fill="#694E9F" fill-rule="nonzero">
            <path d="M17.1283033,14.3731188 L17.1283035,14.3731188 C16.4086014,14.371741 15.7028559,14.5678608 15.0908535,14.9393067 C14.5669708,15.256296 13.9088473,15.2690526 13.372604,14.9726119 L10.6152551,13.4605571 C10.0772853,13.1624091 9.74694136,12.6011504 9.75273451,11.9951294 L9.75273448,11.9951272 C9.74546995,11.3887306 10.0762184,10.8267884 10.615255,10.5296996 L13.3726039,9.01098374 C13.909214,8.71597381 14.5665497,8.72871504 15.0908535,9.04428894 C16.9154781,10.1442455 19.3037769,9.58520284 20.4252777,7.79563133 C21.5467784,6.00605783 20.9767862,3.66363845 19.1521635,2.56368184 C17.3275388,1.46372524 14.9392399,2.02276788 13.8177392,3.81233938 C13.4429713,4.41035373 13.2442459,5.09842527 13.2435654,5.80036508 L13.2435654,5.80036643 C13.2533331,6.40913769 12.9222405,6.97422055 12.3810449,7.27245505 L9.71877696,8.73788263 C9.13844613,9.06492137 8.42465678,9.06492137 7.84432311,8.7378827 L7.84432331,8.73788281 C5.99814915,7.67307649 3.6214298,8.27775321 2.53577459,10.0884608 C1.45011258,11.8991698 2.06663272,14.2302321 3.91280552,15.2950318 C5.1482201,16.0075693 6.68360165,15.9937277 7.90544681,15.2590326 L7.90544668,15.2590326 C8.4293294,14.9420433 9.0874529,14.9292868 9.62369615,15.2257273 L12.3810451,16.7444432 C12.9147532,17.0402631 13.2444282,17.5952905 13.2435657,18.1965487 L13.2435657,18.1965493 C13.243566,20.2971398 14.9797787,22 17.1215121,22 C19.2632455,21.9999997 20.9994585,20.2971398 20.9994585,18.1965493 C20.9994582,16.0959588 19.2632455,14.3930986 17.1215121,14.3930986 L17.1283033,14.3731188 Z" id="Shape"></path>
        </g>
    </g>
</svg>