<?xml version="1.0" encoding="UTF-8"?>
<svg width="20px" height="19px" viewBox="0 0 20 19" version="1.1" xmlns="http://www.w3.org/2000/svg" xmlns:xlink="http://www.w3.org/1999/xlink">
    <!-- Generator: Sketch 49 (51002) - http://www.bohemiancoding.com/sketch -->
    <title>Shape</title>
    <desc>Created with Sketch.</desc>
    <defs></defs>
    <g id="Symbols" stroke="none" stroke-width="1" fill="none" fill-rule="evenodd">
        <g id="Icons/Menu/rate" transform="translate(-2.000000, -2.000000)" fill="#6ED300" fill-rule="nonzero">
            <path d="M11.0330157,2.59456798 C11.2990735,2.06430677 11.9476554,1.84861224 12.4816714,2.11280289 C12.691823,2.21677027 12.8621417,2.38589289 12.9668437,2.59456859 L15.4741492,7.64017851 L21.0755763,8.44800582 C21.6659427,8.53355408 22.0746909,9.07812967 21.9885356,9.66434876 C21.9544069,9.89657461 21.8445236,10.1112786 21.6757292,10.2755483 L17.6213629,14.2021187 L18.5816076,19.7443438 L18.5816076,19.744344 C18.6832535,20.3281124 18.2890684,20.8831686 17.70117,20.9841006 C17.4666195,21.0243689 17.2252414,20.9865864 17.0145417,20.8766232 L11.9999308,18.2280091 L6.98531982,20.8766232 C6.45720066,21.1522432 5.80405892,20.9505592 5.5264882,20.4261489 C5.41574732,20.2169269 5.37769763,19.9772445 5.41825062,19.7443426 L6.37849527,14.2021175 L2.32412898,10.2755471 C1.89803243,9.86087145 1.89115135,9.1817158 2.30875974,8.75861293 C2.47419123,8.59100399 2.69041365,8.48189235 2.9242819,8.44800333 L8.52570901,7.64017602 L11.0330157,2.59456798 Z" id="Shape"></path>
        </g>
    </g>
</svg>