<?xml version="1.0" encoding="UTF-8"?>
<svg width="425px" height="39px" viewBox="0 0 425 39" version="1.1" xmlns="http://www.w3.org/2000/svg" xmlns:xlink="http://www.w3.org/1999/xlink">
    <!-- Generator: Sketch 49 (51002) - http://www.bohemiancoding.com/sketch -->
    <title>Онлайн викторина</title>
    <desc>Created with Sketch.</desc>
    <defs></defs>
    <g id="Page-1" stroke="none" stroke-width="1" fill="none" fill-rule="evenodd">
        <g id="1.-Web-Registration-1" transform="translate(-508.000000, -219.000000)" fill="#FFFFFF">
            <path d="M513.957615,244.4 C513.957615,245.409529 514.144358,246.3619 514.517849,247.257143 C514.89134,248.152385 515.396913,248.93333 516.034581,249.6 C516.672249,250.26667 517.419221,250.795236 518.275519,251.185714 C519.131816,251.576192 520.051867,251.771429 521.035698,251.771429 C522.019529,251.771429 522.944134,251.576192 523.809541,251.185714 C524.674949,250.795236 525.426475,250.26667 526.064143,249.6 C526.701812,248.93333 527.202829,248.152385 527.567211,247.257143 C527.931593,246.3619 528.113781,245.409529 528.113781,244.4 C528.113781,243.371423 527.931593,242.409528 527.567211,241.514286 C527.202829,240.619043 526.701812,239.838099 526.064143,239.171429 C525.426475,238.504759 524.674949,237.980954 523.809541,237.6 C522.944134,237.219046 522.019529,237.028571 521.035698,237.028571 C520.070086,237.028571 519.15459,237.219046 518.289183,237.6 C517.423776,237.980954 516.672249,238.504759 516.034581,239.171429 C515.396913,239.838099 514.89134,240.619043 514.517849,241.514286 C514.144358,242.409528 513.957615,243.371423 513.957615,244.4 Z M508,244.4 C508,242.514276 508.346158,240.747627 509.038483,239.1 C509.730809,237.452373 510.669078,236.00953 511.85332,234.771429 C513.037561,233.533327 514.417637,232.557146 515.993588,231.842857 C517.56954,231.128568 519.250227,230.771429 521.035698,230.771429 C522.839388,230.771429 524.529184,231.128568 526.105136,231.842857 C527.681088,232.557146 529.056609,233.533327 530.231741,234.771429 C531.406872,236.00953 532.336032,237.452373 533.019248,239.1 C533.702465,240.747627 534.044067,242.514276 534.044067,244.4 C534.044067,246.266676 533.702465,248.028563 533.019248,249.685714 C532.336032,251.342865 531.406872,252.785708 530.231741,254.014286 C529.056609,255.242863 527.681088,256.214282 526.105136,256.928571 C524.529184,257.642861 522.839388,258 521.035698,258 C519.250227,258 517.56954,257.642861 515.993588,256.928571 C514.417637,256.214282 513.037561,255.242863 511.85332,254.014286 C510.669078,252.785708 509.730809,251.342865 509.038483,249.685714 C508.346158,248.028563 508,246.266676 508,244.4 Z M538.143344,233.971429 C538.143344,233.533331 538.225328,233.11905 538.3893,232.728571 C538.553272,232.338093 538.776453,232.000001 539.058849,231.714286 C539.341244,231.42857 539.669183,231.200001 540.042675,231.028571 C540.416166,230.857142 540.812426,230.771429 541.231465,230.771429 C542.087762,230.771429 542.775523,231.080949 543.294767,231.7 C543.814011,232.319051 544.07363,233.076186 544.07363,233.971429 L544.07363,240.885714 L554.950375,240.885714 L554.950375,233.971429 C554.950375,233.076186 555.219103,232.319051 555.756566,231.7 C556.29403,231.080949 556.9909,230.771429 557.847197,230.771429 C558.266236,230.771429 558.662496,230.857142 559.035987,231.028571 C559.409479,231.200001 559.732863,231.42857 560.006149,231.714286 C560.279436,232.000001 560.498062,232.338093 560.662034,232.728571 C560.826005,233.11905 560.90799,233.533331 560.90799,233.971429 L560.90799,254.542857 C560.90799,254.980955 560.826005,255.390474 560.662034,255.771429 C560.498062,256.152383 560.279436,256.485713 560.006149,256.771429 C559.732863,257.057144 559.409479,257.280952 559.035987,257.442857 C558.662496,257.604763 558.266236,257.685714 557.847197,257.685714 C556.9909,257.685714 556.29403,257.385717 555.756566,256.785714 C555.219103,256.185711 554.950375,255.4381 554.950375,254.542857 L554.950375,247.285714 L544.07363,247.285714 L544.07363,254.542857 C544.07363,255.4381 543.809457,256.185711 543.281103,256.785714 C542.752749,257.385717 542.060434,257.685714 541.204136,257.685714 C540.785097,257.685714 540.388838,257.604763 540.015346,257.442857 C539.641855,257.280952 539.318471,257.057144 539.045184,256.771429 C538.771898,256.485713 538.553272,256.152383 538.3893,255.771429 C538.225328,255.390474 538.143344,254.980955 538.143344,254.542857 L538.143344,233.971429 Z M574.025674,232.6 C574.280741,231.990473 574.677,231.514287 575.214464,231.171429 C575.751927,230.82857 576.330375,230.67619 576.949824,230.714286 C577.514616,230.733333 578.038407,230.90476 578.521213,231.228571 C579.004019,231.552383 579.363841,232.009521 579.600689,232.6 L588.455125,253.428571 C588.619097,253.828573 588.696527,254.238093 588.687418,254.657143 C588.678308,255.076193 588.600878,255.471427 588.455125,255.842857 C588.309373,256.214288 588.099856,256.547618 587.82657,256.842857 C587.553283,257.138097 587.234454,257.371428 586.870072,257.542857 C586.487471,257.714287 586.100321,257.795238 585.70861,257.785714 C585.3169,257.77619 584.943414,257.700001 584.588142,257.557143 C584.232869,257.414285 583.909485,257.19524 583.61798,256.9 C583.326474,256.60476 583.098739,256.257145 582.934767,255.857143 L576.84051,239.771429 L570.691596,255.857143 C570.527624,256.276193 570.304443,256.62857 570.022047,256.914286 C569.739651,257.200001 569.425377,257.419047 569.079214,257.571429 C568.733051,257.72381 568.36412,257.8 567.972409,257.8 C567.580699,257.8 567.193549,257.714287 566.810948,257.542857 C566.428347,257.371428 566.095853,257.138097 565.813457,256.842857 C565.531061,256.547618 565.31699,256.214288 565.171237,255.842857 C565.025484,255.471427 564.948054,255.076193 564.938945,254.657143 C564.929835,254.238093 565.007265,253.828573 565.171237,253.428571 L574.025674,232.6 Z M599.1679,232.657143 C599.477625,231.93333 599.969533,231.409525 600.64364,231.085714 L600.725625,231.028571 C600.871378,230.971428 601.008019,230.928572 601.135553,230.9 C601.263086,230.871428 601.399728,230.838095 601.54548,230.8 L601.682123,230.8 C602.101162,230.761905 602.474648,230.799999 602.802592,230.914286 L603.157862,231.028571 C603.248958,231.066667 603.330942,231.114285 603.403819,231.171429 L603.622447,231.342857 C604.096143,231.666668 604.442301,232.104759 604.66093,232.657143 L613.515367,253.428571 C613.679338,253.828573 613.756768,254.238093 613.747659,254.657143 C613.738549,255.076193 613.661119,255.471427 613.515367,255.842857 C613.369614,256.214288 613.160097,256.547618 612.886811,256.842857 C612.613524,257.138097 612.294695,257.371428 611.930313,257.542857 C611.547712,257.714287 611.160562,257.795238 610.768852,257.785714 C610.377141,257.77619 610.003655,257.700001 609.648383,257.557143 C609.29311,257.414285 608.969726,257.19524 608.678221,256.9 C608.386715,256.60476 608.15898,256.257145 607.995008,255.857143 L606.901868,252.942857 L596.926963,252.942857 L595.861151,255.857143 C595.697179,256.276193 595.473998,256.62857 595.191602,256.914286 C594.909206,257.200001 594.590377,257.419047 594.235105,257.571429 C593.879832,257.72381 593.506346,257.8 593.114636,257.8 C592.722925,257.8 592.335775,257.714287 591.953174,257.542857 C591.570573,257.371428 591.23808,257.138097 590.955684,256.842857 C590.673288,256.547618 590.459217,256.214288 590.313464,255.842857 C590.167711,255.471427 590.090281,255.076193 590.081172,254.657143 C590.072062,254.238093 590.149492,253.828573 590.313464,253.428571 L599.1679,232.657143 Z M599.113243,247.085714 L604.742916,247.085714 L601.928079,239.457143 L599.113243,247.085714 Z M639.969362,254.485714 C639.969362,254.923812 639.891932,255.338093 639.737069,255.728571 C639.582207,256.11905 639.368136,256.457141 639.094849,256.742857 C638.821563,257.028573 638.502734,257.257142 638.138352,257.428571 C637.77397,257.600001 637.382265,257.685714 636.963226,257.685714 C636.106928,257.685714 635.446496,257.376194 634.981909,256.757143 C634.517322,256.138092 634.285032,255.380957 634.285032,254.485714 L634.285032,241.685714 L622.451788,256.428571 C622.196721,256.752383 621.923439,256.999999 621.631933,257.171429 C621.158237,257.514287 620.620781,257.685714 620.019551,257.685714 C619.600512,257.685714 619.204253,257.600001 618.830761,257.428571 C618.45727,257.257142 618.133886,257.028573 617.860599,256.742857 C617.587313,256.457141 617.368687,256.11905 617.204715,255.728571 C617.040743,255.338093 616.958758,254.923812 616.958758,254.485714 L616.958758,233.971429 C616.958758,233.533331 617.036188,233.11905 617.191051,232.728571 C617.345913,232.338093 617.559984,232.000001 617.833271,231.714286 C618.106557,231.42857 618.425387,231.200001 618.789768,231.028571 C619.15415,230.857142 619.545855,230.771429 619.964894,230.771429 C620.839411,230.771429 621.54539,231.080949 622.082854,231.7 C622.620317,232.319051 622.889045,233.076186 622.889045,233.971429 L622.889045,246.514286 L634.50366,232 C634.795166,231.638093 635.159542,231.352382 635.5968,231.142857 C635.797211,231.028571 636.002172,230.938096 636.211692,230.871429 C636.421211,230.804762 636.653501,230.771429 636.908569,230.771429 C637.327608,230.771429 637.723867,230.857142 638.097359,231.028571 C638.47085,231.200001 638.794234,231.42857 639.067521,231.714286 C639.340807,232.000001 639.559433,232.338093 639.723405,232.728571 C639.887377,233.11905 639.969362,233.533331 639.969362,233.971429 L639.969362,254.485714 Z M623.216987,221.171429 C623.216987,220.561902 623.412839,220.047621 623.80455,219.628571 C624.19626,219.209522 624.674504,219 625.239296,219 C625.822307,219 626.309661,219.209522 626.701371,219.628571 C627.093082,220.047621 627.288934,220.561902 627.288934,221.171429 L627.288934,221.285714 C627.307153,221.895241 627.530334,222.419045 627.958483,222.857143 C628.386631,223.29524 628.910423,223.514286 629.529872,223.514286 C630.149321,223.514286 630.677667,223.280955 631.114925,222.814286 C631.552184,222.347617 631.770809,221.800003 631.770809,221.171429 C631.770809,220.561902 631.962107,220.047621 632.344708,219.628571 C632.727309,219.209522 633.210108,219 633.793119,219 C634.37613,219 634.858929,219.209522 635.24153,219.628571 C635.624131,220.047621 635.815429,220.561902 635.815429,221.171429 C635.815429,222.066671 635.651459,222.914282 635.323515,223.714286 C634.995572,224.51429 634.544656,225.209521 633.970754,225.8 C633.396853,226.390479 632.727311,226.857141 631.962109,227.2 C631.196907,227.542859 630.386169,227.714286 629.529872,227.714286 C628.655355,227.714286 627.835508,227.542859 627.070306,227.2 C626.305104,226.857141 625.635562,226.390479 625.061661,225.8 C624.487759,225.209521 624.036844,224.51429 623.7089,223.714286 C623.380956,222.914282 623.216987,222.066671 623.216987,221.171429 Z M646.692174,233.971429 C646.692174,233.533331 646.774159,233.11905 646.938131,232.728571 C647.102103,232.338093 647.325283,232.000001 647.607679,231.714286 C647.890075,231.42857 648.218014,231.200001 648.591506,231.028571 C648.964997,230.857142 649.361257,230.771429 649.780296,230.771429 C650.636593,230.771429 651.324354,231.080949 651.843598,231.7 C652.362842,232.319051 652.62246,233.076186 652.62246,233.971429 L652.62246,240.885714 L663.499206,240.885714 L663.499206,233.971429 C663.499206,233.076186 663.767934,232.319051 664.305397,231.7 C664.842861,231.080949 665.539731,230.771429 666.396028,230.771429 C666.815067,230.771429 667.211327,230.857142 667.584818,231.028571 C667.95831,231.200001 668.281694,231.42857 668.55498,231.714286 C668.828267,232.000001 669.046893,232.338093 669.210864,232.728571 C669.374836,233.11905 669.456821,233.533331 669.456821,233.971429 L669.456821,254.542857 C669.456821,254.980955 669.374836,255.390474 669.210864,255.771429 C669.046893,256.152383 668.828267,256.485713 668.55498,256.771429 C668.281694,257.057144 667.95831,257.280952 667.584818,257.442857 C667.211327,257.604763 666.815067,257.685714 666.396028,257.685714 C665.539731,257.685714 664.842861,257.385717 664.305397,256.785714 C663.767934,256.185711 663.499206,255.4381 663.499206,254.542857 L663.499206,247.285714 L652.62246,247.285714 L652.62246,254.542857 C652.62246,255.4381 652.358288,256.185711 651.829934,256.785714 C651.30158,257.385717 650.609265,257.685714 649.752967,257.685714 C649.333928,257.685714 648.937669,257.604763 648.564177,257.442857 C648.190686,257.280952 647.867302,257.057144 647.594015,256.771429 C647.320729,256.485713 647.102103,256.152383 646.938131,255.771429 C646.774159,255.390474 646.692174,254.980955 646.692174,254.542857 L646.692174,233.971429 Z M691.674897,257.685714 C691.255858,257.685714 690.868708,257.604763 690.513436,257.442857 C690.158163,257.280952 689.852998,257.066668 689.597931,256.8 C689.342863,256.533332 689.137902,256.214288 688.983039,255.842857 C688.828177,255.471427 688.750747,255.076193 688.750747,254.657143 L688.750747,233.828571 C688.750747,233.409522 688.828177,233.009526 688.983039,232.628571 C689.137902,232.247617 689.347418,231.923811 689.611595,231.657143 C689.875772,231.390475 690.185492,231.176191 690.540764,231.014286 C690.896037,230.85238 691.274077,230.771429 691.674897,230.771429 L700.365363,230.771429 C701.349194,230.771429 702.305682,230.938094 703.234856,231.271429 C704.16403,231.604764 704.983877,232.085711 705.694422,232.714286 C706.404966,233.34286 706.978859,234.123805 707.416118,235.057143 C707.853376,235.990481 708.072002,237.057137 708.072002,238.257143 C708.072002,239.285719 707.848821,240.228567 707.402453,241.085714 C706.956085,241.942861 706.359419,242.685711 705.612436,243.314286 C706.74202,243.980956 707.639297,244.861899 708.304294,245.957143 C708.969291,247.052386 709.301785,248.276184 709.301785,249.628571 C709.301785,250.828577 709.087713,251.923805 708.659565,252.914286 C708.231416,253.904767 707.643859,254.752377 706.896876,255.457143 C706.149893,256.161908 705.270835,256.709522 704.259675,257.1 C703.248515,257.490478 702.15994,257.685714 700.993918,257.685714 L691.674897,257.685714 Z M694.681033,246.257143 L694.681033,251.742857 L701.157889,251.742857 C701.995968,251.742857 702.660955,251.504764 703.15287,251.028571 C703.644786,250.552379 703.89074,249.923813 703.89074,249.142857 C703.89074,248.361901 703.649341,247.685717 703.166535,247.114286 C702.683729,246.542854 702.014187,246.257143 701.157889,246.257143 L694.681033,246.257143 Z M694.681033,236.542857 L694.681033,241.685714 L700.22872,241.685714 C700.538445,241.685714 700.839055,241.633334 701.130561,241.528571 C701.422066,241.423809 701.686239,241.266668 701.923088,241.057143 C702.159936,240.847618 702.346679,240.585716 702.483322,240.271429 C702.619965,239.957141 702.688286,239.580955 702.688286,239.142857 C702.688286,238.28571 702.446886,237.638097 701.96408,237.2 C701.481274,236.761903 700.902827,236.542857 700.22872,236.542857 L694.681033,236.542857 Z M736.193036,254.485714 C736.193036,254.923812 736.115606,255.338093 735.960743,255.728571 C735.805881,256.11905 735.59181,256.457141 735.318523,256.742857 C735.045237,257.028573 734.726408,257.257142 734.362026,257.428571 C733.997644,257.600001 733.605939,257.685714 733.1869,257.685714 C732.330602,257.685714 731.67017,257.376194 731.205583,256.757143 C730.740996,256.138092 730.508706,255.380957 730.508706,254.485714 L730.508706,241.685714 L718.675463,256.428571 C718.420395,256.752383 718.147113,256.999999 717.855607,257.171429 C717.381911,257.514287 716.844456,257.685714 716.243225,257.685714 C715.824186,257.685714 715.427927,257.600001 715.054435,257.428571 C714.680944,257.257142 714.35756,257.028573 714.084273,256.742857 C713.810987,256.457141 713.592361,256.11905 713.428389,255.728571 C713.264417,255.338093 713.182433,254.923812 713.182433,254.485714 L713.182433,233.971429 C713.182433,233.533331 713.259863,233.11905 713.414725,232.728571 C713.569587,232.338093 713.783658,232.000001 714.056945,231.714286 C714.330231,231.42857 714.649061,231.200001 715.013443,231.028571 C715.377824,230.857142 715.769529,230.771429 716.188568,230.771429 C717.063085,230.771429 717.769064,231.080949 718.306528,231.7 C718.843991,232.319051 719.112719,233.076186 719.112719,233.971429 L719.112719,246.514286 L730.727334,232 C731.01884,231.638093 731.383216,231.352382 731.820475,231.142857 C732.020885,231.028571 732.225846,230.938096 732.435366,230.871429 C732.644886,230.804762 732.877176,230.771429 733.132243,230.771429 C733.551282,230.771429 733.947541,230.857142 734.321033,231.028571 C734.694524,231.200001 735.017909,231.42857 735.291195,231.714286 C735.564481,232.000001 735.783107,232.338093 735.947079,232.728571 C736.111051,233.11905 736.193036,233.533331 736.193036,233.971429 L736.193036,254.485714 Z M744.446245,233.885714 C744.446245,233.447617 744.523675,233.038097 744.678537,232.657143 C744.8334,232.276189 745.047471,231.94762 745.320757,231.671429 C745.594044,231.395237 745.912873,231.176191 746.277255,231.014286 C746.641637,230.85238 747.033341,230.771429 747.452381,230.771429 C748.290459,230.771429 748.987329,231.071426 749.543012,231.671429 C750.098694,232.271432 750.376531,233.009519 750.376531,233.885714 L750.376531,240.142857 L759.996166,230.771429 C760.30589,230.466665 760.647493,230.24762 761.020985,230.114286 C761.394476,229.980952 761.772517,229.919048 762.155118,229.928571 C762.537719,229.938095 762.911204,230.028571 763.275586,230.2 C763.639968,230.371429 763.967907,230.609522 764.259413,230.914286 C764.532699,231.238097 764.733106,231.595236 764.86064,231.985714 C764.988174,232.376192 765.04283,232.771427 765.024611,233.171429 C765.006392,233.571431 764.915298,233.957141 764.751326,234.328571 C764.587354,234.700002 764.359619,235.02857 764.068113,235.314286 L756.498117,242.685714 L765.270567,252.428571 C765.562073,252.752383 765.776144,253.10476 765.912787,253.485714 C766.049431,253.866669 766.113196,254.257141 766.104087,254.657143 C766.094977,255.057145 766.012993,255.442855 765.85813,255.814286 C765.703268,256.185716 765.480087,256.523808 765.188582,256.828571 C764.878857,257.133335 764.541809,257.357142 764.177427,257.5 C763.813045,257.642858 763.439559,257.714286 763.056958,257.714286 C762.674357,257.714286 762.296317,257.633334 761.922825,257.471429 C761.549334,257.309523 761.21684,257.066668 760.925335,256.742857 L752.152884,246.942857 L750.376531,248.685714 L750.376531,254.571429 C750.376531,255.009526 750.299101,255.419046 750.144239,255.8 C749.989376,256.180954 749.784415,256.509522 749.529347,256.785714 C749.27428,257.061906 748.96456,257.280952 748.600178,257.442857 C748.235796,257.604763 747.853201,257.685714 747.452381,257.685714 C747.033341,257.685714 746.641637,257.604763 746.277255,257.442857 C745.912873,257.280952 745.594044,257.061906 745.320757,256.785714 C745.047471,256.509522 744.8334,256.180954 744.678537,255.8 C744.523675,255.419046 744.446245,255.009526 744.446245,254.571429 L744.446245,233.885714 Z M777.650381,236.971429 L770.544969,236.971429 C770.12593,236.971429 769.734225,236.895239 769.369844,236.742857 C769.005462,236.590475 768.686632,236.380954 768.413346,236.114286 C768.140059,235.847618 767.925988,235.533335 767.771126,235.171429 C767.616264,234.809522 767.538834,234.409526 767.538834,233.971429 C767.538834,233.514283 767.616264,233.090478 767.771126,232.7 C767.925988,232.309522 768.140059,231.97143 768.413346,231.685714 C768.686632,231.399999 769.005462,231.176191 769.369844,231.014286 C769.734225,230.85238 770.12593,230.771429 770.544969,230.771429 L790.440123,230.771429 C790.859162,230.771429 791.255421,230.857142 791.628913,231.028571 C792.002404,231.200001 792.325788,231.42857 792.599075,231.714286 C792.872361,232.000001 793.090987,232.338093 793.254959,232.728571 C793.418931,233.11905 793.500915,233.533331 793.500915,233.971429 C793.500915,234.866671 793.20486,235.590473 792.612739,236.142857 C792.020618,236.695241 791.29642,236.971429 790.440123,236.971429 L783.580667,236.971429 L783.580667,254.542857 C783.580667,254.980955 783.498683,255.390474 783.334711,255.771429 C783.170739,256.152383 782.952113,256.485713 782.678827,256.771429 C782.40554,257.057144 782.082156,257.280952 781.708665,257.442857 C781.335173,257.604763 780.938914,257.685714 780.519875,257.685714 C779.681796,257.685714 778.994036,257.385717 778.456572,256.785714 C777.919109,256.185711 777.650381,255.4381 777.650381,254.542857 L777.650381,236.971429 Z M802.328023,244.4 C802.328023,245.409529 802.514766,246.3619 802.888258,247.257143 C803.261749,248.152385 803.767321,248.93333 804.40499,249.6 C805.042658,250.26667 805.78963,250.795236 806.645927,251.185714 C807.502225,251.576192 808.422276,251.771429 809.406107,251.771429 C810.389938,251.771429 811.314543,251.576192 812.17995,251.185714 C813.045357,250.795236 813.796884,250.26667 814.434552,249.6 C815.07222,248.93333 815.573238,248.152385 815.93762,247.257143 C816.302002,246.3619 816.48419,245.409529 816.48419,244.4 C816.48419,243.371423 816.302002,242.409528 815.93762,241.514286 C815.573238,240.619043 815.07222,239.838099 814.434552,239.171429 C813.796884,238.504759 813.045357,237.980954 812.17995,237.6 C811.314543,237.219046 810.389938,237.028571 809.406107,237.028571 C808.440495,237.028571 807.524999,237.219046 806.659592,237.6 C805.794185,237.980954 805.042658,238.504759 804.40499,239.171429 C803.767321,239.838099 803.261749,240.619043 802.888258,241.514286 C802.514766,242.409528 802.328023,243.371423 802.328023,244.4 Z M796.370409,244.4 C796.370409,242.514276 796.716566,240.747627 797.408892,239.1 C798.101218,237.452373 799.039487,236.00953 800.223728,234.771429 C801.407969,233.533327 802.788045,232.557146 804.363997,231.842857 C805.939949,231.128568 807.620635,230.771429 809.406107,230.771429 C811.209797,230.771429 812.899593,231.128568 814.475545,231.842857 C816.051497,232.557146 817.427018,233.533327 818.602149,234.771429 C819.777281,236.00953 820.706441,237.452373 821.389657,239.1 C822.072873,240.747627 822.414476,242.514276 822.414476,244.4 C822.414476,246.266676 822.072873,248.028563 821.389657,249.685714 C820.706441,251.342865 819.777281,252.785708 818.602149,254.014286 C817.427018,255.242863 816.051497,256.214282 814.475545,256.928571 C812.899593,257.642861 811.209797,258 809.406107,258 C807.620635,258 805.939949,257.642861 804.363997,256.928571 C802.788045,256.214282 801.407969,255.242863 800.223728,254.014286 C799.039487,252.785708 798.101218,251.342865 797.408892,249.685714 C796.716566,248.028563 796.370409,246.266676 796.370409,244.4 Z M828.290105,233.971429 C828.290105,233.533331 828.37209,233.11905 828.536062,232.728571 C828.700034,232.338093 828.91866,232.000001 829.191946,231.714286 C829.465232,231.42857 829.788616,231.200001 830.162108,231.028571 C830.535599,230.857142 830.931859,230.771429 831.350898,230.771429 L839.19418,230.771429 C840.560612,230.771429 841.845039,231.042854 843.047499,231.585714 C844.249959,232.128574 845.297542,232.871424 846.190277,233.814286 C847.083013,234.757148 847.788993,235.857137 848.308237,237.114286 C848.827481,238.371435 849.087099,239.714279 849.087099,241.142857 C849.087099,242.571436 848.827481,243.880946 848.308237,245.071429 C847.788993,246.261911 847.083013,247.28571 846.190277,248.142857 C845.297542,249.000004 844.249959,249.666664 843.047499,250.142857 C841.845039,250.61905 840.560612,250.857143 839.19418,250.857143 L834.220391,250.857143 L834.220391,254.542857 C834.220391,254.980955 834.147516,255.395236 834.001763,255.785714 C833.85601,256.176192 833.655603,256.514284 833.400536,256.8 C833.145469,257.085716 832.844858,257.314285 832.498695,257.485714 C832.152533,257.657144 831.769937,257.742857 831.350898,257.742857 C830.931859,257.742857 830.535599,257.657144 830.162108,257.485714 C829.788616,257.314285 829.465232,257.085716 829.191946,256.8 C828.91866,256.514284 828.700034,256.176192 828.536062,255.785714 C828.37209,255.395236 828.290105,254.980955 828.290105,254.542857 L828.290105,233.971429 Z M834.220391,236.828571 L834.220391,244.8 L839.057537,244.8 C839.622329,244.8 840.15523,244.704763 840.656255,244.514286 C841.15728,244.323809 841.594532,244.057145 841.968023,243.714286 C842.341515,243.371427 842.633016,242.961907 842.842535,242.485714 C843.052055,242.009521 843.156813,241.485717 843.156813,240.914286 C843.156813,240.361902 843.0475,239.838098 842.828871,239.342857 C842.610242,238.847617 842.318741,238.414288 841.954359,238.042857 C841.589977,237.671427 841.161835,237.376192 840.669919,237.157143 C840.178003,236.938094 839.649658,236.828571 839.084866,236.828571 L834.220391,236.828571 Z M875.595751,254.485714 C875.595751,254.923812 875.518321,255.338093 875.363459,255.728571 C875.208597,256.11905 874.994526,256.457141 874.721239,256.742857 C874.447953,257.028573 874.129123,257.257142 873.764741,257.428571 C873.400359,257.600001 873.008655,257.685714 872.589615,257.685714 C871.733318,257.685714 871.072886,257.376194 870.608299,256.757143 C870.143712,256.138092 869.911422,255.380957 869.911422,254.485714 L869.911422,241.685714 L858.078178,256.428571 C857.823111,256.752383 857.549828,256.999999 857.258323,257.171429 C856.784626,257.514287 856.247171,257.685714 855.645941,257.685714 C855.226902,257.685714 854.830642,257.600001 854.457151,257.428571 C854.083659,257.257142 853.760275,257.028573 853.486989,256.742857 C853.213702,256.457141 852.995077,256.11905 852.831105,255.728571 C852.667133,255.338093 852.585148,254.923812 852.585148,254.485714 L852.585148,233.971429 C852.585148,233.533331 852.662578,233.11905 852.81744,232.728571 C852.972303,232.338093 853.186374,232.000001 853.45966,231.714286 C853.732947,231.42857 854.051776,231.200001 854.416158,231.028571 C854.78054,230.857142 855.172245,230.771429 855.591284,230.771429 C856.465801,230.771429 857.17178,231.080949 857.709243,231.7 C858.246707,232.319051 858.515434,233.076186 858.515434,233.971429 L858.515434,246.514286 L870.13005,232 C870.421555,231.638093 870.785932,231.352382 871.22319,231.142857 C871.4236,231.028571 871.628562,230.938096 871.838082,230.871429 C872.047601,230.804762 872.279891,230.771429 872.534958,230.771429 C872.953998,230.771429 873.350257,230.857142 873.723749,231.028571 C874.09724,231.200001 874.420624,231.42857 874.693911,231.714286 C874.967197,232.000001 875.185823,232.338093 875.349795,232.728571 C875.513767,233.11905 875.595751,233.533331 875.595751,233.971429 L875.595751,254.485714 Z M882.318564,233.971429 C882.318564,233.533331 882.400549,233.11905 882.564521,232.728571 C882.728493,232.338093 882.951673,232.000001 883.234069,231.714286 C883.516465,231.42857 883.844404,231.200001 884.217895,231.028571 C884.591387,230.857142 884.987646,230.771429 885.406685,230.771429 C886.262983,230.771429 886.950743,231.080949 887.469988,231.7 C887.989232,232.319051 888.24885,233.076186 888.24885,233.971429 L888.24885,240.885714 L899.125596,240.885714 L899.125596,233.971429 C899.125596,233.076186 899.394324,232.319051 899.931787,231.7 C900.46925,231.080949 901.16612,230.771429 902.022418,230.771429 C902.441457,230.771429 902.837716,230.857142 903.211208,231.028571 C903.584699,231.200001 903.908083,231.42857 904.18137,231.714286 C904.454656,232.000001 904.673282,232.338093 904.837254,232.728571 C905.001226,233.11905 905.083211,233.533331 905.083211,233.971429 L905.083211,254.542857 C905.083211,254.980955 905.001226,255.390474 904.837254,255.771429 C904.673282,256.152383 904.454656,256.485713 904.18137,256.771429 C903.908083,257.057144 903.584699,257.280952 903.211208,257.442857 C902.837716,257.604763 902.441457,257.685714 902.022418,257.685714 C901.16612,257.685714 900.46925,257.385717 899.931787,256.785714 C899.394324,256.185711 899.125596,255.4381 899.125596,254.542857 L899.125596,247.285714 L888.24885,247.285714 L888.24885,254.542857 C888.24885,255.4381 887.984677,256.185711 887.456323,256.785714 C886.92797,257.385717 886.235654,257.685714 885.379357,257.685714 C884.960318,257.685714 884.564058,257.604763 884.190567,257.442857 C883.817075,257.280952 883.493691,257.057144 883.220405,256.771429 C882.947118,256.485713 882.728493,256.152383 882.564521,255.771429 C882.400549,255.390474 882.318564,254.980955 882.318564,254.542857 L882.318564,233.971429 Z M918.419522,232.657143 C918.729247,231.93333 919.221155,231.409525 919.895262,231.085714 L919.977247,231.028571 C920.123,230.971428 920.259641,230.928572 920.387175,230.9 C920.514708,230.871428 920.65135,230.838095 920.797102,230.8 L920.933745,230.8 C921.352784,230.761905 921.72627,230.799999 922.054214,230.914286 L922.409484,231.028571 C922.50058,231.066667 922.582564,231.114285 922.655441,231.171429 L922.874069,231.342857 C923.347765,231.666668 923.693923,232.104759 923.912552,232.657143 L932.766989,253.428571 C932.93096,253.828573 933.00839,254.238093 932.999281,254.657143 C932.990171,255.076193 932.912741,255.471427 932.766989,255.842857 C932.621236,256.214288 932.411719,256.547618 932.138433,256.842857 C931.865146,257.138097 931.546317,257.371428 931.181935,257.542857 C930.799334,257.714287 930.412184,257.795238 930.020474,257.785714 C929.628763,257.77619 929.255277,257.700001 928.900005,257.557143 C928.544732,257.414285 928.221348,257.19524 927.929843,256.9 C927.638337,256.60476 927.410602,256.257145 927.24663,255.857143 L926.15349,252.942857 L916.178585,252.942857 L915.112773,255.857143 C914.948801,256.276193 914.72562,256.62857 914.443224,256.914286 C914.160828,257.200001 913.841999,257.419047 913.486727,257.571429 C913.131454,257.72381 912.757968,257.8 912.366258,257.8 C911.974547,257.8 911.587397,257.714287 911.204796,257.542857 C910.822195,257.371428 910.489702,257.138097 910.207306,256.842857 C909.92491,256.547618 909.710839,256.214288 909.565086,255.842857 C909.419333,255.471427 909.341903,255.076193 909.332794,254.657143 C909.323684,254.238093 909.401114,253.828573 909.565086,253.428571 L918.419522,232.657143 Z M918.364865,247.085714 L923.994538,247.085714 L921.179701,239.457143 L918.364865,247.085714 Z" id="Онлайн-викторина"></path>
        </g>
    </g>
</svg>