<?xml version="1.0" encoding="UTF-8"?>
<svg width="19px" height="16px" viewBox="0 0 19 16" version="1.1" xmlns="http://www.w3.org/2000/svg" xmlns:xlink="http://www.w3.org/1999/xlink">
    <!-- Generator: Sketch 49 (51002) - http://www.bohemiancoding.com/sketch -->
    <title>White / Twitter</title>
    <desc>Created with Sketch.</desc>
    <defs></defs>
    <g id="Symbols" stroke="none" stroke-width="1" fill="none" fill-rule="evenodd">
        <g id="Buttons/Social/twitter" transform="translate(-47.000000, -10.000000)" fill="#FFFFFF">
            <g id="Group" transform="translate(47.000000, 10.000000)">
                <g id="White-/-Twitter">
                    <path d="M18.38,0.334 C17.637,0.785 16.816,1.113 15.9385,1.289 C15.2395,0.5235 14.2405,0.0455 13.1345,0.0455 C11.0145,0.0455 9.294,1.8095 9.294,3.985 C9.294,4.294 9.327,4.594 9.393,4.8825 C6.2,4.718 3.3695,3.151 1.4735,0.765 C1.1425,1.3485 0.9535,2.026 0.9535,2.7475 C0.9535,4.1135 1.6315,5.3195 2.663,6.0265 C2.034,6.0075 1.4405,5.828 0.9215,5.535 L0.9215,5.5835 C0.9215,7.493 2.246,9.0855 4.005,9.4465 C3.683,9.5385 3.343,9.585 2.9925,9.585 C2.745,9.585 2.5035,9.5615 2.2695,9.515 C2.7585,11.0795 4.1765,12.219 5.858,12.2495 C4.5435,13.307 2.886,13.937 1.0865,13.937 C0.7765,13.937 0.47,13.919 0.17,13.883 C1.87,14.999 3.8905,15.6515 6.0595,15.6515 C13.127,15.6515 16.9905,9.649 16.9905,4.443 C16.9905,4.2715 16.9875,4.1 16.981,3.932 C17.7315,3.3765 18.3835,2.683 18.8965,1.893 C18.2085,2.2065 17.4675,2.4185 16.6905,2.513 C17.484,2.026 18.093,1.254 18.38,0.334" id="Fill-4"></path>
                </g>
            </g>
        </g>
    </g>
</svg>