<?xml version="1.0" encoding="UTF-8"?>
<svg width="24px" height="20px" viewBox="0 0 24 20" version="1.1" xmlns="http://www.w3.org/2000/svg" xmlns:xlink="http://www.w3.org/1999/xlink">
    <!-- Generator: Sketch 49 (51002) - http://www.bohemiancoding.com/sketch -->
    <title>Colored / Twitter</title>
    <desc>Created with Sketch.</desc>
    <defs></defs>
    <g id="ла" stroke="none" stroke-width="1" fill="none" fill-rule="evenodd">
        <g id="9.-Screen-Reply" transform="translate(-260.000000, -871.000000)" fill="#24A9E6">
            <g id="Social" transform="translate(135.000000, 845.000000)">
                <g transform="translate(125.000000, 24.000000)" id="Colored-/-Twitter">
                    <g transform="translate(0.000000, 2.000000)">
                        <path d="M23.2168421,0.390315789 C22.2783158,0.96 21.2412632,1.37431579 20.1328421,1.596 C19.2498947,0.629684211 17.988,0.0258947368 16.5909474,0.0258947368 C13.9130526,0.0258947368 11.7397895,2.25410526 11.7397895,5.00210526 C11.7397895,5.39242105 11.7814737,5.77073684 11.8648421,6.13515789 C7.83157895,5.92736842 4.25621053,3.94863158 1.86126316,0.934105263 C1.44315789,1.67178947 1.20442105,2.52757895 1.20442105,3.43894737 C1.20442105,5.16442105 2.06084211,6.68778947 3.36378947,7.58021053 C2.56926316,7.55621053 1.81957895,7.33010526 1.164,6.96 L1.164,7.02063158 C1.164,9.43263158 2.83705263,11.4448421 5.05894737,11.9002105 C4.65221053,12.0170526 4.22273684,12.0757895 3.78,12.0757895 C3.46736842,12.0757895 3.16231579,12.0454737 2.86673684,11.9873684 C3.48442105,13.9635789 5.27557895,15.4029474 7.39957895,15.4414737 C5.73915789,16.7766316 3.64547368,17.5724211 1.37242105,17.5724211 C0.980842105,17.5724211 0.593684211,17.5496842 0.214736842,17.5042105 C2.36210526,18.9138947 4.91431579,19.7381053 7.65410526,19.7381053 C16.5814737,19.7381053 21.4616842,12.1566316 21.4616842,5.58 C21.4616842,5.36336842 21.4578947,5.14736842 21.4496842,4.93515789 C22.3976842,4.23284211 23.2212632,3.35747368 23.8692632,2.35957895 C23.0002105,2.75494737 22.0642105,3.02273684 21.0827368,3.14273684 C22.0850526,2.52757895 22.8543158,1.55242105 23.2168421,0.390315789" id="Fill-62"></path>
                    </g>
                </g>
            </g>
        </g>
    </g>
</svg>