<?xml version="1.0" encoding="UTF-8"?>
<svg width="28px" height="16px" viewBox="0 0 28 16" version="1.1" xmlns="http://www.w3.org/2000/svg" xmlns:xlink="http://www.w3.org/1999/xlink">
    <!-- Generator: Sketch 49 (51002) - http://www.bohemiancoding.com/sketch -->
    <title>White / VK</title>
    <desc>Created with Sketch.</desc>
    <defs></defs>
    <g id="Symbols" stroke="none" stroke-width="1" fill="none" fill-rule="evenodd">
        <g id="Buttons/Social/vk" transform="translate(-33.000000, -10.000000)" fill="#FFFFFF">
            <g id="Group" transform="translate(33.000000, 10.000000)">
                <g id="White-/-VK">
                    <path d="M27.9413333,14.1708571 C27.9081481,14.1011429 27.8767407,14.0434286 27.8477037,13.9971429 C27.3671111,13.1628571 26.4491852,12.1382857 25.0933333,10.924 L25.0648889,10.896 L25.0506667,10.8822857 L25.0358519,10.8685714 L25.0216296,10.8685714 C24.4065185,10.3028571 24.0165926,9.92285714 23.8536296,9.728 C23.554963,9.35714286 23.488,8.98228571 23.6515556,8.60171429 C23.7665185,8.31428571 24.1997037,7.70742857 24.9493333,6.78057143 C25.3434074,6.28914286 25.6557037,5.89542857 25.8862222,5.59885714 C27.5496296,3.46628571 28.2708148,2.104 28.0491852,1.51085714 L27.9632593,1.372 C27.9057778,1.28857143 27.757037,1.212 27.5164444,1.14228571 C27.2758519,1.07314286 26.9688889,1.06171429 26.5937778,1.108 L22.4408889,1.13542857 C22.3733333,1.11257143 22.2773333,1.11485714 22.1522963,1.14228571 C22.0272593,1.17028571 21.965037,1.18457143 21.965037,1.18457143 L21.8927407,1.21942857 L21.8352593,1.26114286 C21.7872593,1.28857143 21.7345185,1.33714286 21.6764444,1.40685714 C21.618963,1.476 21.570963,1.55771429 21.5324444,1.65028571 C21.0802963,2.772 20.5665185,3.81485714 19.9893333,4.77885714 C19.6337778,5.35371429 19.3072593,5.85142857 19.0091852,6.27314286 C18.7111111,6.69542857 18.461037,7.00571429 18.2595556,7.20514286 C18.0574815,7.404 17.874963,7.564 17.7114074,7.68457143 C17.5478519,7.80514286 17.4228148,7.85657143 17.3362963,7.83771429 C17.2497778,7.81885714 17.1685926,7.80057143 17.090963,7.78171429 C16.9564444,7.69828571 16.8485926,7.58514286 16.7668148,7.44114286 C16.685037,7.29771429 16.6299259,7.11657143 16.6008889,6.89885714 C16.5724444,6.68114286 16.5552593,6.49371429 16.5505185,6.336 C16.5457778,6.17828571 16.5481481,5.95542857 16.5576296,5.66857143 C16.5677037,5.38057143 16.5724444,5.18628571 16.5724444,5.08457143 C16.5724444,4.732 16.5795556,4.34971429 16.5937778,3.93714286 C16.608,3.52457143 16.6198519,3.19771429 16.6299259,2.95714286 C16.6394074,2.716 16.6441481,2.46114286 16.6441481,2.192 C16.6441481,1.92342857 16.626963,1.71257143 16.5937778,1.55942857 C16.5605926,1.40685714 16.5096296,1.25828571 16.4426667,1.11428571 C16.3751111,0.970857143 16.2767407,0.86 16.146963,0.780571429 C16.0171852,0.702285714 15.856,0.639428571 15.664,0.593142857 C15.1543704,0.481714286 14.5054815,0.421714286 13.7173333,0.412571429 C11.9294815,0.393714286 10.7804444,0.505142857 10.2708148,0.746285714 C10.0687407,0.848 9.88622222,0.987428571 9.72325926,1.16342857 C9.54962963,1.36742857 9.52592593,1.47828571 9.65096296,1.49657143 C10.2275556,1.58 10.6358519,1.77942857 10.8764444,2.09485714 L10.962963,2.26171429 C11.0305185,2.38228571 11.0974815,2.59542857 11.165037,2.90114286 C11.232,3.20685714 11.2752593,3.54514286 11.2948148,3.916 C11.3428148,4.59314286 11.3428148,5.172 11.2948148,5.65428571 C11.2468148,6.13657143 11.2011852,6.51142857 11.1573333,6.78057143 C11.1140741,7.04914286 11.0494815,7.26742857 10.962963,7.43371429 C10.8764444,7.60057143 10.818963,7.70285714 10.7899259,7.74 C10.7608889,7.77714286 10.7371852,7.8 10.7176296,7.80914286 C10.5925926,7.85542857 10.4628148,7.87885714 10.3282963,7.87885714 C10.1937778,7.87885714 10.0302222,7.81428571 9.83822222,7.684 C9.64622222,7.55428571 9.44651852,7.376 9.2397037,7.14914286 C9.03288889,6.92171429 8.8,6.604 8.54044444,6.19657143 C8.28088889,5.78857143 8.01185185,5.30628571 7.73274074,4.75028571 L7.50222222,4.34685714 C7.35822222,4.08742857 7.16088889,3.70971429 6.91140741,3.21371429 C6.66074074,2.71771429 6.4402963,2.23828571 6.2477037,1.77485714 C6.17125926,1.58 6.0557037,1.432 5.90162963,1.32971429 L5.82992593,1.288 C5.78133333,1.25085714 5.70488889,1.21142857 5.59881481,1.16971429 C5.49333333,1.128 5.38251852,1.09771429 5.26755556,1.07942857 L1.31614815,1.10685714 C0.912592593,1.10685714 0.638814815,1.19542857 0.494222222,1.37142857 L0.436740741,1.45485714 C0.407703704,1.50114286 0.393481481,1.57542857 0.393481481,1.67714286 C0.393481481,1.77942857 0.421925926,1.90457143 0.48,2.05257143 C1.05659259,3.36 1.68414815,4.62057143 2.36148148,5.83485714 C3.03940741,7.04914286 3.62785185,8.02742857 4.128,8.76857143 C4.62755556,9.51028571 5.13718519,10.2102857 5.6562963,10.868 C6.17540741,11.5262857 6.51911111,11.948 6.68740741,12.1331429 C6.8557037,12.3188571 6.98785185,12.4577143 7.08385185,12.5502857 L7.44474074,12.884 C7.67525926,13.1068571 8.01422222,13.3731429 8.46103704,13.6834286 C8.90785185,13.9942857 9.40325926,14.3 9.94607407,14.6017143 C10.4894815,14.9028571 11.1211852,15.1485714 11.8423704,15.3382857 C12.5635556,15.5285714 13.2651852,15.6045714 13.9478519,15.568 L15.6059259,15.568 C15.9425185,15.54 16.1973333,15.4382857 16.3703704,15.2622857 L16.4278519,15.1925714 C16.4663704,15.1371429 16.5025185,15.0508571 16.5357037,14.9354286 C16.5694815,14.8194286 16.5860741,14.692 16.5860741,14.5531429 C16.5765926,14.1542857 16.608,13.7954286 16.6797037,13.4754286 C16.752,13.156 16.8337778,12.9148571 16.925037,12.7525714 C17.0168889,12.5902857 17.12,12.4531429 17.234963,12.3422857 C17.3505185,12.2314286 17.4322963,12.164 17.4808889,12.1405714 C17.5288889,12.1177143 17.5668148,12.1017143 17.5958519,12.092 C17.8263704,12.0182857 18.0977778,12.0897143 18.4106667,12.308 C18.722963,12.5257143 19.0162963,12.7948571 19.2900741,13.1142857 C19.5644444,13.4342857 19.8933333,13.7931429 20.2779259,14.192 C20.6625185,14.5902857 20.9991111,14.8868571 21.2871111,15.0817143 L21.5757037,15.2485714 C21.7682963,15.36 22.0183704,15.4617143 22.3259259,15.5548571 C22.6328889,15.6474286 22.9019259,15.6702857 23.133037,15.624 L26.8242963,15.5685714 C27.1893333,15.5685714 27.4737778,15.5102857 27.6752593,15.3948571 C27.8767407,15.2788571 27.997037,15.1514286 28.0355556,15.0125714 C28.0740741,14.8731429 28.0764444,14.7154286 28.0426667,14.5394286 C28.0088889,14.3634286 27.9751111,14.2405714 27.9413333,14.1708571" id="Fill-16"></path>
                </g>
            </g>
        </g>
    </g>
</svg>